# xmcd
#
# Track frame offsets:
#	150
#	15864
#	36427
#	51031
#	65027
#	79083
#	87981
#	102068
#	119134
#	137440
#	159099
#	176268
#	203839
#	220085
#	237110
#
# Disc length: 3441 seconds
#
# Revision: 1
# Processed by: cddbd v1.5.1PL2 Copyright (c) Steve Scherf et al.
# Submitted via: audiograbber 1.83.01
#
DISCID=bc0d6f0f
DTITLE=mixalis xatzigiannis - mixalis xatzigiannis live cd2
DYEAR=2006
DGENRE=Ethnic
TTITLE0=kryfa
TTITLE1=na meineis edo
TTITLE2=oti kai an po
TTITLE3=ekdromi
TTITLE4=kapnos
TTITLE5=kai tha xatho
TTITLE6=kleino ta matia
TTITLE7=auta pou tha elega se esena
TTITLE8=monos mou
TTITLE9=den exo xrono (off beat version)
TTITLE10=an mou tilefonouses
TTITLE11=to parti
TTITLE12=de feugo
TTITLE13=den eimai edo gia kanena
TTITLE14=moiazoume
EXTD=
EXTT0=
EXTT1=
EXTT2=
EXTT3=
EXTT4=
EXTT5=
EXTT6=
EXTT7=
EXTT8=
EXTT9=
EXTT10=
EXTT11=
EXTT12=
EXTT13=
EXTT14=
PLAYORDER=
